solid OpenSCAD_Model
  facet normal 0 1 -0
    outer loop
      vertex -53.4 33.5 110
      vertex -60 33.5 123.8
      vertex -53.4 33.5 123.8
    endloop
  endfacet
  facet normal 0 1 0
    outer loop
      vertex -60 33.5 123.8
      vertex -53.4 33.5 110
      vertex -60 33.5 110
    endloop
  endfacet
  facet normal 1 -0 0
    outer loop
      vertex -53.4 -33.5 123.8
      vertex -53.4 33.5 110
      vertex -53.4 33.5 123.8
    endloop
  endfacet
  facet normal 1 0 0
    outer loop
      vertex -53.4 33.5 110
      vertex -53.4 -33.5 123.8
      vertex -53.4 -33.5 110
    endloop
  endfacet
  facet normal 0 -1 0
    outer loop
      vertex -60 -33.5 110
      vertex -53.4 -33.5 123.8
      vertex -60 -33.5 123.8
    endloop
  endfacet
  facet normal 0 -1 -0
    outer loop
      vertex -53.4 -33.5 123.8
      vertex -60 -33.5 110
      vertex -53.4 -33.5 110
    endloop
  endfacet
  facet normal -0 0 1
    outer loop
      vertex -60 33.5 123.8
      vertex -53.4 -33.5 123.8
      vertex -53.4 33.5 123.8
    endloop
  endfacet
  facet normal 0 0 1
    outer loop
      vertex -53.4 -33.5 123.8
      vertex -60 33.5 123.8
      vertex -60 -33.5 123.8
    endloop
  endfacet
  facet normal 0 0 -1
    outer loop
      vertex -60 -33.5 110
      vertex -53.4 33.5 110
      vertex -53.4 -33.5 110
    endloop
  endfacet
  facet normal -0 0 -1
    outer loop
      vertex -53.4 33.5 110
      vertex -60 -33.5 110
      vertex -60 33.5 110
    endloop
  endfacet
  facet normal -1 0 0
    outer loop
      vertex -60 -33.5 110
      vertex -60 33.5 123.8
      vertex -60 33.5 110
    endloop
  endfacet
  facet normal -1 -0 0
    outer loop
      vertex -60 33.5 123.8
      vertex -60 -33.5 110
      vertex -60 -33.5 123.8
    endloop
  endfacet
endsolid OpenSCAD_Model
