solid OpenSCAD_Model
  facet normal -0.195089 -0.980786 0
    outer loop
      vertex 2.22354 0.102222 0
      vertex 2.60842 0.0256653 86.9
      vertex 2.22354 0.102222 86.9
    endloop
  endfacet
  facet normal -0.195089 -0.980786 -0
    outer loop
      vertex 2.60842 0.0256653 86.9
      vertex 2.22354 0.102222 0
      vertex 2.60842 0.0256653 0
    endloop
  endfacet
  facet normal 0.89643 -0.443185 0
    outer loop
      vertex 154.598 1.5 86.9
      vertex 154.772 1.85195 0
      vertex 154.772 1.85195 86.9
    endloop
  endfacet
  facet normal 0.89643 -0.443185 0
    outer loop
      vertex 154.772 1.85195 0
      vertex 154.598 1.5 86.9
      vertex 154.598 1.5 0
    endloop
  endfacet
  facet normal 0.195519 -0.9807 0
    outer loop
      vertex 152.392 0.0256653 0
      vertex 152.776 0.102222 86.9
      vertex 152.392 0.0256653 86.9
    endloop
  endfacet
  facet normal 0.195519 -0.9807 0
    outer loop
      vertex 152.776 0.102222 86.9
      vertex 152.392 0.0256653 0
      vertex 152.776 0.102222 0
    endloop
  endfacet
  facet normal 0.997803 0.0662484 0
    outer loop
      vertex 155 45.8 86.9
      vertex 154.974 46.1916 0
      vertex 154.974 46.1916 86.9
    endloop
  endfacet
  facet normal 0.997803 0.0662484 0
    outer loop
      vertex 154.974 46.1916 0
      vertex 155 45.8 86.9
      vertex 155 45.8 0
    endloop
  endfacet
  facet normal 0.555906 -0.831245 0
    outer loop
      vertex 153.5 0.401923 0
      vertex 153.826 0.61994 86.9
      vertex 153.5 0.401923 86.9
    endloop
  endfacet
  facet normal 0.555906 -0.831245 0
    outer loop
      vertex 153.826 0.61994 86.9
      vertex 153.5 0.401923 0
      vertex 153.826 0.61994 0
    endloop
  endfacet
  facet normal 0.0653328 -0.997864 0
    outer loop
      vertex 152 0 0
      vertex 152.392 0.0256653 86.9
      vertex 152 0 86.9
    endloop
  endfacet
  facet normal 0.0653328 -0.997864 0
    outer loop
      vertex 152.392 0.0256653 86.9
      vertex 152 0 0
      vertex 152.392 0.0256653 0
    endloop
  endfacet
  facet normal 0.195379 0.980728 -0
    outer loop
      vertex 152.776 48.6978 0
      vertex 152.392 48.7743 86.9
      vertex 152.776 48.6978 86.9
    endloop
  endfacet
  facet normal 0.195379 0.980728 0
    outer loop
      vertex 152.392 48.7743 86.9
      vertex 152.776 48.6978 0
      vertex 152.392 48.7743 0
    endloop
  endfacet
  facet normal -0.831465 -0.555577 0
    outer loop
      vertex 0.61994 1.17372 0
      vertex 0.401923 1.5 86.9
      vertex 0.401923 1.5 0
    endloop
  endfacet
  facet normal -0.831465 -0.555577 0
    outer loop
      vertex 0.401923 1.5 86.9
      vertex 0.61994 1.17372 0
      vertex 0.61994 1.17372 86.9
    endloop
  endfacet
  facet normal 0.981056 -0.193723 0
    outer loop
      vertex 154.898 2.22354 86.9
      vertex 154.974 2.60842 0
      vertex 154.974 2.60842 86.9
    endloop
  endfacet
  facet normal 0.981056 -0.193723 0
    outer loop
      vertex 154.974 2.60842 0
      vertex 154.898 2.22354 86.9
      vertex 154.898 2.22354 0
    endloop
  endfacet
  facet normal 0.659478 0.751724 -0
    outer loop
      vertex 154.121 47.9213 0
      vertex 153.826 48.1801 86.9
      vertex 154.121 47.9213 86.9
    endloop
  endfacet
  facet normal 0.659478 0.751724 0
    outer loop
      vertex 153.826 48.1801 86.9
      vertex 154.121 47.9213 0
      vertex 153.826 48.1801 0
    endloop
  endfacet
  facet normal -0.555577 -0.831465 0
    outer loop
      vertex 1.17372 0.61994 0
      vertex 1.5 0.401923 86.9
      vertex 1.17372 0.61994 86.9
    endloop
  endfacet
  facet normal -0.555577 -0.831465 -0
    outer loop
      vertex 1.5 0.401923 86.9
      vertex 1.17372 0.61994 0
      vertex 1.5 0.401923 0
    endloop
  endfacet
  facet normal -0.0654026 -0.997859 0
    outer loop
      vertex 2.60842 0.0256653 0
      vertex 3 0 86.9
      vertex 2.60842 0.0256653 86.9
    endloop
  endfacet
  facet normal -0.0654026 -0.997859 -0
    outer loop
      vertex 3 0 86.9
      vertex 2.60842 0.0256653 0
      vertex 3 0 0
    endloop
  endfacet
  facet normal -1 0 0
    outer loop
      vertex 0 3 0
      vertex 0 45.8 86.9
      vertex 0 45.8 0
    endloop
  endfacet
  facet normal -1 -0 0
    outer loop
      vertex 0 45.8 86.9
      vertex 0 3 0
      vertex 0 3 86.9
    endloop
  endfacet
  facet normal -0.321442 -0.946929 0
    outer loop
      vertex 1.85195 0.228361 0
      vertex 2.22354 0.102222 86.9
      vertex 1.85195 0.228361 86.9
    endloop
  endfacet
  facet normal -0.321442 -0.946929 -0
    outer loop
      vertex 2.22354 0.102222 86.9
      vertex 1.85195 0.228361 0
      vertex 2.22354 0.102222 0
    endloop
  endfacet
  facet normal 0.997803 -0.0662518 0
    outer loop
      vertex 154.974 2.60842 86.9
      vertex 155 3 0
      vertex 155 3 86.9
    endloop
  endfacet
  facet normal 0.997803 -0.0662518 0
    outer loop
      vertex 155 3 0
      vertex 154.974 2.60842 86.9
      vertex 154.974 2.60842 0
    endloop
  endfacet
  facet normal 1 -0 0
    outer loop
      vertex 155 3 86.9
      vertex 155 45.8 0
      vertex 155 45.8 86.9
    endloop
  endfacet
  facet normal 1 0 0
    outer loop
      vertex 155 45.8 0
      vertex 155 3 86.9
      vertex 155 3 0
    endloop
  endfacet
  facet normal 0.65939 -0.751801 0
    outer loop
      vertex 153.826 0.61994 0
      vertex 154.121 0.878679 86.9
      vertex 153.826 0.61994 86.9
    endloop
  endfacet
  facet normal 0.65939 -0.751801 0
    outer loop
      vertex 154.121 0.878679 86.9
      vertex 153.826 0.61994 0
      vertex 154.121 0.878679 0
    endloop
  endfacet
  facet normal 0.555877 0.831265 -0
    outer loop
      vertex 153.826 48.1801 0
      vertex 153.5 48.3981 86.9
      vertex 153.826 48.1801 86.9
    endloop
  endfacet
  facet normal 0.555877 0.831265 0
    outer loop
      vertex 153.5 48.3981 86.9
      vertex 153.826 48.1801 0
      vertex 153.5 48.3981 0
    endloop
  endfacet
  facet normal 0 -1 0
    outer loop
      vertex 3 0 0
      vertex 152 0 86.9
      vertex 3 0 86.9
    endloop
  endfacet
  facet normal 0 -1 -0
    outer loop
      vertex 152 0 86.9
      vertex 3 0 0
      vertex 152 0 0
    endloop
  endfacet
  facet normal 0.896405 0.443235 0
    outer loop
      vertex 154.772 46.9481 86.9
      vertex 154.598 47.3 0
      vertex 154.598 47.3 86.9
    endloop
  endfacet
  facet normal 0.896405 0.443235 0
    outer loop
      vertex 154.598 47.3 0
      vertex 154.772 46.9481 86.9
      vertex 154.772 46.9481 0
    endloop
  endfacet
  facet normal 0.442237 -0.896898 0
    outer loop
      vertex 153.148 0.228361 0
      vertex 153.5 0.401923 86.9
      vertex 153.148 0.228361 86.9
    endloop
  endfacet
  facet normal 0.442237 -0.896898 0
    outer loop
      vertex 153.5 0.401923 86.9
      vertex 153.148 0.228361 0
      vertex 153.5 0.401923 0
    endloop
  endfacet
  facet normal 0 1 -0
    outer loop
      vertex 152 48.8 0
      vertex 3 48.8 86.9
      vertex 152 48.8 86.9
    endloop
  endfacet
  facet normal 0 1 0
    outer loop
      vertex 3 48.8 86.9
      vertex 152 48.8 0
      vertex 3 48.8 0
    endloop
  endfacet
  facet normal -0.442288 -0.896873 0
    outer loop
      vertex 1.5 0.401923 0
      vertex 1.85195 0.228361 86.9
      vertex 1.5 0.401923 86.9
    endloop
  endfacet
  facet normal -0.442288 -0.896873 -0
    outer loop
      vertex 1.85195 0.228361 86.9
      vertex 1.5 0.401923 0
      vertex 1.85195 0.228361 0
    endloop
  endfacet
  facet normal 0.751471 0.659766 0
    outer loop
      vertex 154.38 47.6263 86.9
      vertex 154.121 47.9213 0
      vertex 154.121 47.9213 86.9
    endloop
  endfacet
  facet normal 0.751471 0.659766 0
    outer loop
      vertex 154.121 47.9213 0
      vertex 154.38 47.6263 86.9
      vertex 154.38 47.6263 0
    endloop
  endfacet
  facet normal -0.946932 0.321434 0
    outer loop
      vertex 0.102222 46.5765 0
      vertex 0.228361 46.9481 86.9
      vertex 0.228361 46.9481 0
    endloop
  endfacet
  facet normal -0.946932 0.321434 0
    outer loop
      vertex 0.228361 46.9481 86.9
      vertex 0.102222 46.5765 0
      vertex 0.102222 46.5765 86.9
    endloop
  endfacet
  facet normal 0.321124 -0.947037 0
    outer loop
      vertex 152.776 0.102222 0
      vertex 153.148 0.228361 86.9
      vertex 152.776 0.102222 86.9
    endloop
  endfacet
  facet normal 0.321124 -0.947037 0
    outer loop
      vertex 153.148 0.228361 86.9
      vertex 152.776 0.102222 0
      vertex 153.148 0.228361 0
    endloop
  endfacet
  facet normal -0.659339 -0.751846 0
    outer loop
      vertex 0.878679 0.878679 0
      vertex 1.17372 0.61994 86.9
      vertex 0.878679 0.878679 86.9
    endloop
  endfacet
  facet normal -0.659339 -0.751846 -0
    outer loop
      vertex 1.17372 0.61994 86.9
      vertex 0.878679 0.878679 0
      vertex 1.17372 0.61994 0
    endloop
  endfacet
  facet normal -0.831481 0.555553 0
    outer loop
      vertex 0.401923 47.3 0
      vertex 0.61994 47.6263 86.9
      vertex 0.61994 47.6263 0
    endloop
  endfacet
  facet normal -0.831481 0.555553 0
    outer loop
      vertex 0.61994 47.6263 86.9
      vertex 0.401923 47.3 0
      vertex 0.401923 47.3 86.9
    endloop
  endfacet
  facet normal -0 0 1
    outer loop
      vertex 148.6 10 86.9
      vertex 152.6 8.4 86.9
      vertex 152.6 10 86.9
    endloop
  endfacet
  facet normal 0 0 1
    outer loop
      vertex 152.6 8.4 86.9
      vertex 148.6 10 86.9
      vertex 148.6 8.4 86.9
    endloop
  endfacet
  facet normal -0 0 1
    outer loop
      vertex 148.6 17.6 86.9
      vertex 152.6 16 86.9
      vertex 152.6 17.6 86.9
    endloop
  endfacet
  facet normal 0 0 1
    outer loop
      vertex 152.6 16 86.9
      vertex 148.6 17.6 86.9
      vertex 148.6 16 86.9
    endloop
  endfacet
  facet normal -0 0 1
    outer loop
      vertex 148.6 25.2 86.9
      vertex 152.6 23.6 86.9
      vertex 152.6 25.2 86.9
    endloop
  endfacet
  facet normal 0 0 1
    outer loop
      vertex 152.6 23.6 86.9
      vertex 148.6 25.2 86.9
      vertex 148.6 23.6 86.9
    endloop
  endfacet
  facet normal -0 0 1
    outer loop
      vertex 148.6 32.8 86.9
      vertex 152.6 31.2 86.9
      vertex 152.6 32.8 86.9
    endloop
  endfacet
  facet normal 0 0 1
    outer loop
      vertex 152.6 31.2 86.9
      vertex 148.6 32.8 86.9
      vertex 148.6 31.2 86.9
    endloop
  endfacet
  facet normal -0 0 1
    outer loop
      vertex 148.6 40.4 86.9
      vertex 152.6 38.8 86.9
      vertex 152.6 40.4 86.9
    endloop
  endfacet
  facet normal 0 0 1
    outer loop
      vertex 152.6 38.8 86.9
      vertex 148.6 40.4 86.9
      vertex 148.6 38.8 86.9
    endloop
  endfacet
  facet normal 0 0 1
    outer loop
      vertex 152.6 46.4 86.9
      vertex 155 45.8 86.9
      vertex 154.974 46.1916 86.9
    endloop
  endfacet
  facet normal 0 0 1
    outer loop
      vertex 155 45.8 86.9
      vertex 152.6 25.2 86.9
      vertex 155 3 86.9
    endloop
  endfacet
  facet normal -0 0 1
    outer loop
      vertex 152.6 46.4 86.9
      vertex 154.974 46.1916 86.9
      vertex 154.898 46.5765 86.9
    endloop
  endfacet
  facet normal -0 0 1
    outer loop
      vertex 152.6 23.6 86.9
      vertex 155 3 86.9
      vertex 152.6 25.2 86.9
    endloop
  endfacet
  facet normal 0 0 1
    outer loop
      vertex 152.6 46.4 86.9
      vertex 154.898 46.5765 86.9
      vertex 154.772 46.9481 86.9
    endloop
  endfacet
  facet normal -0 0 1
    outer loop
      vertex 152.6 17.6 86.9
      vertex 155 3 86.9
      vertex 152.6 23.6 86.9
    endloop
  endfacet
  facet normal 0 0 1
    outer loop
      vertex 152.6 46.4 86.9
      vertex 154.772 46.9481 86.9
      vertex 154.598 47.3 86.9
    endloop
  endfacet
  facet normal -0 0 1
    outer loop
      vertex 152.6 16 86.9
      vertex 155 3 86.9
      vertex 152.6 17.6 86.9
    endloop
  endfacet
  facet normal 0 0 1
    outer loop
      vertex 152.6 46.4 86.9
      vertex 154.598 47.3 86.9
      vertex 154.38 47.6263 86.9
    endloop
  endfacet
  facet normal -0 0 1
    outer loop
      vertex 152.6 10 86.9
      vertex 155 3 86.9
      vertex 152.6 16 86.9
    endloop
  endfacet
  facet normal 0 0 1
    outer loop
      vertex 152.6 46.4 86.9
      vertex 154.38 47.6263 86.9
      vertex 154.121 47.9213 86.9
    endloop
  endfacet
  facet normal -0 0 1
    outer loop
      vertex 152.6 8.4 86.9
      vertex 155 3 86.9
      vertex 152.6 10 86.9
    endloop
  endfacet
  facet normal 0 0 1
    outer loop
      vertex 152.6 46.4 86.9
      vertex 154.121 47.9213 86.9
      vertex 153.826 48.1801 86.9
    endloop
  endfacet
  facet normal 0 0 1
    outer loop
      vertex 152.6 2.4 86.9
      vertex 155 3 86.9
      vertex 152.6 8.4 86.9
    endloop
  endfacet
  facet normal 0 0 1
    outer loop
      vertex 152.6 46.4 86.9
      vertex 153.826 48.1801 86.9
      vertex 153.5 48.3981 86.9
    endloop
  endfacet
  facet normal 0 0 1
    outer loop
      vertex 155 3 86.9
      vertex 152.6 2.4 86.9
      vertex 154.974 2.60842 86.9
    endloop
  endfacet
  facet normal 0 0 1
    outer loop
      vertex 152.6 46.4 86.9
      vertex 153.5 48.3981 86.9
      vertex 153.148 48.5716 86.9
    endloop
  endfacet
  facet normal 0 0 1
    outer loop
      vertex 155 45.8 86.9
      vertex 152.6 31.2 86.9
      vertex 152.6 25.2 86.9
    endloop
  endfacet
  facet normal 0 0 1
    outer loop
      vertex 152.6 46.4 86.9
      vertex 153.148 48.5716 86.9
      vertex 152.776 48.6978 86.9
    endloop
  endfacet
  facet normal 0 0 1
    outer loop
      vertex 155 45.8 86.9
      vertex 152.6 32.8 86.9
      vertex 152.6 31.2 86.9
    endloop
  endfacet
  facet normal 0 0 1
    outer loop
      vertex 155 45.8 86.9
      vertex 152.6 46.4 86.9
      vertex 152.6 40.4 86.9
    endloop
  endfacet
  facet normal 0 0 1
    outer loop
      vertex 152.392 48.7743 86.9
      vertex 152.6 46.4 86.9
      vertex 152.776 48.6978 86.9
    endloop
  endfacet
  facet normal 0 0 1
    outer loop
      vertex 152 48.8 86.9
      vertex 152.6 46.4 86.9
      vertex 152.392 48.7743 86.9
    endloop
  endfacet
  facet normal -0 0 1
    outer loop
      vertex 3 48.8 86.9
      vertex 152.6 46.4 86.9
      vertex 152 48.8 86.9
    endloop
  endfacet
  facet normal 0 0 1
    outer loop
      vertex 2.4 46.4 86.9
      vertex 3 48.8 86.9
      vertex 2.60842 48.7743 86.9
    endloop
  endfacet
  facet normal 0 0 1
    outer loop
      vertex 3 48.8 86.9
      vertex 2.4 46.4 86.9
      vertex 152.6 46.4 86.9
    endloop
  endfacet
  facet normal -0 0 1
    outer loop
      vertex 0 45.8 86.9
      vertex 2.4 40.4 86.9
      vertex 2.4 46.4 86.9
    endloop
  endfacet
  facet normal 0 0 1
    outer loop
      vertex 2.4 40.4 86.9
      vertex 0 45.8 86.9
      vertex 2.4 38.8 86.9
    endloop
  endfacet
  facet normal 0 0 1
    outer loop
      vertex 2.4 38.8 86.9
      vertex 0 45.8 86.9
      vertex 2.4 32.8 86.9
    endloop
  endfacet
  facet normal 0 0 1
    outer loop
      vertex 2.4 32.8 86.9
      vertex 0 45.8 86.9
      vertex 2.4 31.2 86.9
    endloop
  endfacet
  facet normal 0 0 1
    outer loop
      vertex 2.4 31.2 86.9
      vertex 0 45.8 86.9
      vertex 2.4 25.2 86.9
    endloop
  endfacet
  facet normal 0 0 1
    outer loop
      vertex 2.4 25.2 86.9
      vertex 0 45.8 86.9
      vertex 2.4 23.6 86.9
    endloop
  endfacet
  facet normal 0 0 1
    outer loop
      vertex 0 3 86.9
      vertex 2.4 23.6 86.9
      vertex 0 45.8 86.9
    endloop
  endfacet
  facet normal 0 0 1
    outer loop
      vertex 2.4 23.6 86.9
      vertex 0 3 86.9
      vertex 2.4 17.6 86.9
    endloop
  endfacet
  facet normal 0 0 1
    outer loop
      vertex 2.4 17.6 86.9
      vertex 0 3 86.9
      vertex 2.4 16 86.9
    endloop
  endfacet
  facet normal 0 0 1
    outer loop
      vertex 2.4 16 86.9
      vertex 0 3 86.9
      vertex 2.4 10 86.9
    endloop
  endfacet
  facet normal -0 0 1
    outer loop
      vertex 1.85195 48.5716 86.9
      vertex 2.4 46.4 86.9
      vertex 2.22354 48.6978 86.9
    endloop
  endfacet
  facet normal -0 0 1
    outer loop
      vertex 2.22354 48.6978 86.9
      vertex 2.4 46.4 86.9
      vertex 2.60842 48.7743 86.9
    endloop
  endfacet
  facet normal 0 0 1
    outer loop
      vertex 155 45.8 86.9
      vertex 152.6 40.4 86.9
      vertex 152.6 38.8 86.9
    endloop
  endfacet
  facet normal 0 0 1
    outer loop
      vertex 155 45.8 86.9
      vertex 152.6 38.8 86.9
      vertex 152.6 32.8 86.9
    endloop
  endfacet
  facet normal 0 0 1
    outer loop
      vertex 154.974 2.60842 86.9
      vertex 152.6 2.4 86.9
      vertex 154.898 2.22354 86.9
    endloop
  endfacet
  facet normal 0 0 1
    outer loop
      vertex 154.898 2.22354 86.9
      vertex 152.6 2.4 86.9
      vertex 154.772 1.85195 86.9
    endloop
  endfacet
  facet normal 0 0 1
    outer loop
      vertex 154.772 1.85195 86.9
      vertex 152.6 2.4 86.9
      vertex 154.598 1.5 86.9
    endloop
  endfacet
  facet normal 0 0 1
    outer loop
      vertex 154.598 1.5 86.9
      vertex 152.6 2.4 86.9
      vertex 154.38 1.17372 86.9
    endloop
  endfacet
  facet normal 0 0 1
    outer loop
      vertex 154.38 1.17372 86.9
      vertex 152.6 2.4 86.9
      vertex 154.121 0.878679 86.9
    endloop
  endfacet
  facet normal 0 0 1
    outer loop
      vertex 154.121 0.878679 86.9
      vertex 152.6 2.4 86.9
      vertex 153.826 0.61994 86.9
    endloop
  endfacet
  facet normal 0 0 1
    outer loop
      vertex 153.826 0.61994 86.9
      vertex 152.6 2.4 86.9
      vertex 153.5 0.401923 86.9
    endloop
  endfacet
  facet normal 0 0 1
    outer loop
      vertex 153.5 0.401923 86.9
      vertex 152.6 2.4 86.9
      vertex 153.148 0.228361 86.9
    endloop
  endfacet
  facet normal 0 0 1
    outer loop
      vertex 153.148 0.228361 86.9
      vertex 152.6 2.4 86.9
      vertex 152.776 0.102222 86.9
    endloop
  endfacet
  facet normal 0 0 1
    outer loop
      vertex 152.6 2.4 86.9
      vertex 152.392 0.0256653 86.9
      vertex 152.776 0.102222 86.9
    endloop
  endfacet
  facet normal 0 0 1
    outer loop
      vertex 152.6 2.4 86.9
      vertex 152 0 86.9
      vertex 152.392 0.0256653 86.9
    endloop
  endfacet
  facet normal 0 0 1
    outer loop
      vertex 152.6 2.4 86.9
      vertex 3 0 86.9
      vertex 152 0 86.9
    endloop
  endfacet
  facet normal -0 0 1
    outer loop
      vertex 2.4 2.4 86.9
      vertex 3 0 86.9
      vertex 152.6 2.4 86.9
    endloop
  endfacet
  facet normal 0 0 1
    outer loop
      vertex 3 0 86.9
      vertex 2.4 2.4 86.9
      vertex 2.60842 0.0256653 86.9
    endloop
  endfacet
  facet normal 0 0 1
    outer loop
      vertex 2.4 2.4 86.9
      vertex 2.22354 0.102222 86.9
      vertex 2.60842 0.0256653 86.9
    endloop
  endfacet
  facet normal 0 0 1
    outer loop
      vertex 2.4 10 86.9
      vertex 0 3 86.9
      vertex 2.4 8.4 86.9
    endloop
  endfacet
  facet normal -0 0 1
    outer loop
      vertex 1.5 48.3981 86.9
      vertex 2.4 46.4 86.9
      vertex 1.85195 48.5716 86.9
    endloop
  endfacet
  facet normal 0 0 1
    outer loop
      vertex 2.4 8.4 86.9
      vertex 0 3 86.9
      vertex 2.4 2.4 86.9
    endloop
  endfacet
  facet normal -0 0 1
    outer loop
      vertex 1.17372 48.1801 86.9
      vertex 2.4 46.4 86.9
      vertex 1.5 48.3981 86.9
    endloop
  endfacet
  facet normal -0 -0 1
    outer loop
      vertex 0.0256653 2.60842 86.9
      vertex 2.4 2.4 86.9
      vertex 0 3 86.9
    endloop
  endfacet
  facet normal -0 0 1
    outer loop
      vertex 0.878679 47.9213 86.9
      vertex 2.4 46.4 86.9
      vertex 1.17372 48.1801 86.9
    endloop
  endfacet
  facet normal 0 0 1
    outer loop
      vertex 2.4 2.4 86.9
      vertex 1.85195 0.228361 86.9
      vertex 2.22354 0.102222 86.9
    endloop
  endfacet
  facet normal -0 0 1
    outer loop
      vertex 0.61994 47.6263 86.9
      vertex 2.4 46.4 86.9
      vertex 0.878679 47.9213 86.9
    endloop
  endfacet
  facet normal 0 0 1
    outer loop
      vertex 2.4 2.4 86.9
      vertex 1.5 0.401923 86.9
      vertex 1.85195 0.228361 86.9
    endloop
  endfacet
  facet normal -0 0 1
    outer loop
      vertex 0.401923 47.3 86.9
      vertex 2.4 46.4 86.9
      vertex 0.61994 47.6263 86.9
    endloop
  endfacet
  facet normal 0 0 1
    outer loop
      vertex 2.4 2.4 86.9
      vertex 1.17372 0.61994 86.9
      vertex 1.5 0.401923 86.9
    endloop
  endfacet
  facet normal -0 0 1
    outer loop
      vertex 0.228361 46.9481 86.9
      vertex 2.4 46.4 86.9
      vertex 0.401923 47.3 86.9
    endloop
  endfacet
  facet normal 0 0 1
    outer loop
      vertex 2.4 2.4 86.9
      vertex 0.878679 0.878679 86.9
      vertex 1.17372 0.61994 86.9
    endloop
  endfacet
  facet normal -0 0 1
    outer loop
      vertex 0.102222 46.5765 86.9
      vertex 2.4 46.4 86.9
      vertex 0.228361 46.9481 86.9
    endloop
  endfacet
  facet normal 0 0 1
    outer loop
      vertex 2.4 2.4 86.9
      vertex 0.61994 1.17372 86.9
      vertex 0.878679 0.878679 86.9
    endloop
  endfacet
  facet normal 0 0 1
    outer loop
      vertex 0.0256653 46.1916 86.9
      vertex 2.4 46.4 86.9
      vertex 0.102222 46.5765 86.9
    endloop
  endfacet
  facet normal 0 0 1
    outer loop
      vertex 2.4 2.4 86.9
      vertex 0.401923 1.5 86.9
      vertex 0.61994 1.17372 86.9
    endloop
  endfacet
  facet normal 0 0 1
    outer loop
      vertex 2.4 46.4 86.9
      vertex 0.0256653 46.1916 86.9
      vertex 0 45.8 86.9
    endloop
  endfacet
  facet normal 0 0 1
    outer loop
      vertex 2.4 2.4 86.9
      vertex 0.228361 1.85195 86.9
      vertex 0.401923 1.5 86.9
    endloop
  endfacet
  facet normal 0 0 1
    outer loop
      vertex 2.4 2.4 86.9
      vertex 0.102222 2.22354 86.9
      vertex 0.228361 1.85195 86.9
    endloop
  endfacet
  facet normal 0 0 1
    outer loop
      vertex 2.4 2.4 86.9
      vertex 0.0256653 2.60842 86.9
      vertex 0.102222 2.22354 86.9
    endloop
  endfacet
  facet normal -0 0 1
    outer loop
      vertex 2.4 40.4 86.9
      vertex 6.4 38.8 86.9
      vertex 6.4 40.4 86.9
    endloop
  endfacet
  facet normal 0 0 1
    outer loop
      vertex 6.4 38.8 86.9
      vertex 2.4 40.4 86.9
      vertex 2.4 38.8 86.9
    endloop
  endfacet
  facet normal -0 0 1
    outer loop
      vertex 2.4 32.8 86.9
      vertex 6.4 31.2 86.9
      vertex 6.4 32.8 86.9
    endloop
  endfacet
  facet normal 0 0 1
    outer loop
      vertex 6.4 31.2 86.9
      vertex 2.4 32.8 86.9
      vertex 2.4 31.2 86.9
    endloop
  endfacet
  facet normal -0 0 1
    outer loop
      vertex 2.4 25.2 86.9
      vertex 6.4 23.6 86.9
      vertex 6.4 25.2 86.9
    endloop
  endfacet
  facet normal 0 0 1
    outer loop
      vertex 6.4 23.6 86.9
      vertex 2.4 25.2 86.9
      vertex 2.4 23.6 86.9
    endloop
  endfacet
  facet normal -0 0 1
    outer loop
      vertex 2.4 17.6 86.9
      vertex 6.4 16 86.9
      vertex 6.4 17.6 86.9
    endloop
  endfacet
  facet normal 0 0 1
    outer loop
      vertex 6.4 16 86.9
      vertex 2.4 17.6 86.9
      vertex 2.4 16 86.9
    endloop
  endfacet
  facet normal -0 0 1
    outer loop
      vertex 2.4 10 86.9
      vertex 6.4 8.4 86.9
      vertex 6.4 10 86.9
    endloop
  endfacet
  facet normal 0 0 1
    outer loop
      vertex 6.4 8.4 86.9
      vertex 2.4 10 86.9
      vertex 2.4 8.4 86.9
    endloop
  endfacet
  facet normal -0.946929 -0.321442 0
    outer loop
      vertex 0.228361 1.85195 0
      vertex 0.102222 2.22354 86.9
      vertex 0.102222 2.22354 0
    endloop
  endfacet
  facet normal -0.946929 -0.321442 0
    outer loop
      vertex 0.102222 2.22354 86.9
      vertex 0.228361 1.85195 0
      vertex 0.228361 1.85195 86.9
    endloop
  endfacet
  facet normal -0.0654906 0.997853 0
    outer loop
      vertex 3 48.8 0
      vertex 2.60842 48.7743 86.9
      vertex 3 48.8 86.9
    endloop
  endfacet
  facet normal -0.0654906 0.997853 0
    outer loop
      vertex 2.60842 48.7743 86.9
      vertex 3 48.8 0
      vertex 2.60842 48.7743 0
    endloop
  endfacet
  facet normal 0.831501 0.555523 0
    outer loop
      vertex 154.598 47.3 86.9
      vertex 154.38 47.6263 0
      vertex 154.38 47.6263 86.9
    endloop
  endfacet
  facet normal 0.831501 0.555523 0
    outer loop
      vertex 154.38 47.6263 0
      vertex 154.598 47.3 86.9
      vertex 154.598 47.3 0
    endloop
  endfacet
  facet normal 0.751516 -0.659714 0
    outer loop
      vertex 154.121 0.878679 86.9
      vertex 154.38 1.17372 0
      vertex 154.38 1.17372 86.9
    endloop
  endfacet
  facet normal 0.751516 -0.659714 0
    outer loop
      vertex 154.38 1.17372 0
      vertex 154.121 0.878679 86.9
      vertex 154.121 0.878679 0
    endloop
  endfacet
  facet normal -0.321582 0.946882 0
    outer loop
      vertex 2.22354 48.6978 0
      vertex 1.85195 48.5716 86.9
      vertex 2.22354 48.6978 86.9
    endloop
  endfacet
  facet normal -0.321582 0.946882 0
    outer loop
      vertex 1.85195 48.5716 86.9
      vertex 2.22354 48.6978 0
      vertex 1.85195 48.5716 0
    endloop
  endfacet
  facet normal 0.94704 0.321117 0
    outer loop
      vertex 154.898 46.5765 86.9
      vertex 154.772 46.9481 0
      vertex 154.772 46.9481 86.9
    endloop
  endfacet
  facet normal 0.94704 0.321117 0
    outer loop
      vertex 154.772 46.9481 0
      vertex 154.898 46.5765 86.9
      vertex 154.898 46.5765 0
    endloop
  endfacet
  facet normal 0.0654208 0.997858 -0
    outer loop
      vertex 152.392 48.7743 0
      vertex 152 48.8 86.9
      vertex 152.392 48.7743 86.9
    endloop
  endfacet
  facet normal 0.0654208 0.997858 0
    outer loop
      vertex 152 48.8 86.9
      vertex 152.392 48.7743 0
      vertex 152 48.8 0
    endloop
  endfacet
  facet normal -0.896848 0.442338 0
    outer loop
      vertex 0.228361 46.9481 0
      vertex 0.401923 47.3 86.9
      vertex 0.401923 47.3 0
    endloop
  endfacet
  facet normal -0.896848 0.442338 0
    outer loop
      vertex 0.401923 47.3 86.9
      vertex 0.228361 46.9481 0
      vertex 0.228361 46.9481 86.9
    endloop
  endfacet
  facet normal 0.44211 0.896961 -0
    outer loop
      vertex 153.5 48.3981 0
      vertex 153.148 48.5716 86.9
      vertex 153.5 48.3981 86.9
    endloop
  endfacet
  facet normal 0.44211 0.896961 0
    outer loop
      vertex 153.148 48.5716 86.9
      vertex 153.5 48.3981 0
      vertex 153.148 48.5716 0
    endloop
  endfacet
  facet normal 0.947037 -0.321125 0
    outer loop
      vertex 154.772 1.85195 86.9
      vertex 154.898 2.22354 0
      vertex 154.898 2.22354 86.9
    endloop
  endfacet
  facet normal 0.947037 -0.321125 0
    outer loop
      vertex 154.898 2.22354 0
      vertex 154.772 1.85195 86.9
      vertex 154.772 1.85195 0
    endloop
  endfacet
  facet normal 0.831485 -0.555547 0
    outer loop
      vertex 154.38 1.17372 86.9
      vertex 154.598 1.5 0
      vertex 154.598 1.5 86.9
    endloop
  endfacet
  facet normal 0.831485 -0.555547 0
    outer loop
      vertex 154.598 1.5 0
      vertex 154.38 1.17372 86.9
      vertex 154.38 1.17372 0
    endloop
  endfacet
  facet normal -0.751846 -0.659339 0
    outer loop
      vertex 0.878679 0.878679 0
      vertex 0.61994 1.17372 86.9
      vertex 0.61994 1.17372 0
    endloop
  endfacet
  facet normal -0.751846 -0.659339 0
    outer loop
      vertex 0.61994 1.17372 86.9
      vertex 0.878679 0.878679 0
      vertex 0.878679 0.878679 86.9
    endloop
  endfacet
  facet normal -0.896873 -0.442288 0
    outer loop
      vertex 0.401923 1.5 0
      vertex 0.228361 1.85195 86.9
      vertex 0.228361 1.85195 0
    endloop
  endfacet
  facet normal -0.896873 -0.442288 0
    outer loop
      vertex 0.228361 1.85195 86.9
      vertex 0.401923 1.5 0
      vertex 0.401923 1.5 86.9
    endloop
  endfacet
  facet normal 0.321264 0.94699 -0
    outer loop
      vertex 153.148 48.5716 0
      vertex 152.776 48.6978 86.9
      vertex 153.148 48.5716 86.9
    endloop
  endfacet
  facet normal 0.321264 0.94699 0
    outer loop
      vertex 152.776 48.6978 86.9
      vertex 153.148 48.5716 0
      vertex 152.776 48.6978 0
    endloop
  endfacet
  facet normal 0 0 -1
    outer loop
      vertex 152 0 0
      vertex 155 3 0
      vertex 154.974 2.60842 0
    endloop
  endfacet
  facet normal -0 0 -1
    outer loop
      vertex 155 3 0
      vertex 152 0 0
      vertex 155 45.8 0
    endloop
  endfacet
  facet normal 0 0 -1
    outer loop
      vertex 152 0 0
      vertex 154.974 2.60842 0
      vertex 154.898 2.22354 0
    endloop
  endfacet
  facet normal 0 0 -1
    outer loop
      vertex 152 48.8 0
      vertex 155 45.8 0
      vertex 152 0 0
    endloop
  endfacet
  facet normal 0 0 -1
    outer loop
      vertex 152 0 0
      vertex 154.898 2.22354 0
      vertex 154.772 1.85195 0
    endloop
  endfacet
  facet normal 0 0 -1
    outer loop
      vertex 155 45.8 0
      vertex 152 48.8 0
      vertex 154.974 46.1916 0
    endloop
  endfacet
  facet normal 0 0 -1
    outer loop
      vertex 152 0 0
      vertex 154.772 1.85195 0
      vertex 154.598 1.5 0
    endloop
  endfacet
  facet normal 0 0 -1
    outer loop
      vertex 154.974 46.1916 0
      vertex 152 48.8 0
      vertex 154.898 46.5765 0
    endloop
  endfacet
  facet normal 0 0 -1
    outer loop
      vertex 152 0 0
      vertex 154.598 1.5 0
      vertex 154.38 1.17372 0
    endloop
  endfacet
  facet normal 0 0 -1
    outer loop
      vertex 154.898 46.5765 0
      vertex 152 48.8 0
      vertex 154.772 46.9481 0
    endloop
  endfacet
  facet normal 0 0 -1
    outer loop
      vertex 152 0 0
      vertex 154.38 1.17372 0
      vertex 154.121 0.878679 0
    endloop
  endfacet
  facet normal 0 0 -1
    outer loop
      vertex 154.772 46.9481 0
      vertex 152 48.8 0
      vertex 154.598 47.3 0
    endloop
  endfacet
  facet normal 0 0 -1
    outer loop
      vertex 152 0 0
      vertex 154.121 0.878679 0
      vertex 153.826 0.61994 0
    endloop
  endfacet
  facet normal 0 0 -1
    outer loop
      vertex 154.598 47.3 0
      vertex 152 48.8 0
      vertex 154.38 47.6263 0
    endloop
  endfacet
  facet normal 0 0 -1
    outer loop
      vertex 152 0 0
      vertex 153.826 0.61994 0
      vertex 153.5 0.401923 0
    endloop
  endfacet
  facet normal 0 0 -1
    outer loop
      vertex 154.38 47.6263 0
      vertex 152 48.8 0
      vertex 154.121 47.9213 0
    endloop
  endfacet
  facet normal 0 0 -1
    outer loop
      vertex 152 0 0
      vertex 153.5 0.401923 0
      vertex 153.148 0.228361 0
    endloop
  endfacet
  facet normal 0 0 -1
    outer loop
      vertex 154.121 47.9213 0
      vertex 152 48.8 0
      vertex 153.826 48.1801 0
    endloop
  endfacet
  facet normal 0 0 -1
    outer loop
      vertex 152 0 0
      vertex 153.148 0.228361 0
      vertex 152.776 0.102222 0
    endloop
  endfacet
  facet normal 0 0 -1
    outer loop
      vertex 153.826 48.1801 0
      vertex 152 48.8 0
      vertex 153.5 48.3981 0
    endloop
  endfacet
  facet normal 0 0 -1
    outer loop
      vertex 152 0 0
      vertex 152.776 0.102222 0
      vertex 152.392 0.0256653 0
    endloop
  endfacet
  facet normal 0 0 -1
    outer loop
      vertex 153.5 48.3981 0
      vertex 152 48.8 0
      vertex 153.148 48.5716 0
    endloop
  endfacet
  facet normal 0 0 -1
    outer loop
      vertex 153.148 48.5716 0
      vertex 152 48.8 0
      vertex 152.776 48.6978 0
    endloop
  endfacet
  facet normal 0 0 -1
    outer loop
      vertex 152.776 48.6978 0
      vertex 152 48.8 0
      vertex 152.392 48.7743 0
    endloop
  endfacet
  facet normal 0 0 -1
    outer loop
      vertex 3 0 0
      vertex 152 48.8 0
      vertex 152 0 0
    endloop
  endfacet
  facet normal 0 0 -1
    outer loop
      vertex 3 0 0
      vertex 3 48.8 0
      vertex 152 48.8 0
    endloop
  endfacet
  facet normal 0 0 -1
    outer loop
      vertex 0 3 0
      vertex 3 0 0
      vertex 2.60842 0.0256653 0
    endloop
  endfacet
  facet normal 0 0 -1
    outer loop
      vertex 3 0 0
      vertex 0 3 0
      vertex 3 48.8 0
    endloop
  endfacet
  facet normal 0 0 -1
    outer loop
      vertex 0 3 0
      vertex 2.60842 0.0256653 0
      vertex 2.22354 0.102222 0
    endloop
  endfacet
  facet normal 0 0 -1
    outer loop
      vertex 0 45.8 0
      vertex 3 48.8 0
      vertex 0 3 0
    endloop
  endfacet
  facet normal 0 0 -1
    outer loop
      vertex 0 3 0
      vertex 2.22354 0.102222 0
      vertex 1.85195 0.228361 0
    endloop
  endfacet
  facet normal 0 0 -1
    outer loop
      vertex 3 48.8 0
      vertex 0 45.8 0
      vertex 2.60842 48.7743 0
    endloop
  endfacet
  facet normal 0 0 -1
    outer loop
      vertex 0 3 0
      vertex 1.85195 0.228361 0
      vertex 1.5 0.401923 0
    endloop
  endfacet
  facet normal 0 0 -1
    outer loop
      vertex 2.60842 48.7743 0
      vertex 0 45.8 0
      vertex 2.22354 48.6978 0
    endloop
  endfacet
  facet normal 0 0 -1
    outer loop
      vertex 0 3 0
      vertex 1.5 0.401923 0
      vertex 1.17372 0.61994 0
    endloop
  endfacet
  facet normal 0 0 -1
    outer loop
      vertex 2.22354 48.6978 0
      vertex 0 45.8 0
      vertex 1.85195 48.5716 0
    endloop
  endfacet
  facet normal 0 0 -1
    outer loop
      vertex 0 3 0
      vertex 1.17372 0.61994 0
      vertex 0.878679 0.878679 0
    endloop
  endfacet
  facet normal 0 0 -1
    outer loop
      vertex 1.85195 48.5716 0
      vertex 0 45.8 0
      vertex 1.5 48.3981 0
    endloop
  endfacet
  facet normal 0 0 -1
    outer loop
      vertex 0 3 0
      vertex 0.878679 0.878679 0
      vertex 0.61994 1.17372 0
    endloop
  endfacet
  facet normal 0 0 -1
    outer loop
      vertex 1.5 48.3981 0
      vertex 0 45.8 0
      vertex 1.17372 48.1801 0
    endloop
  endfacet
  facet normal 0 0 -1
    outer loop
      vertex 0 3 0
      vertex 0.61994 1.17372 0
      vertex 0.401923 1.5 0
    endloop
  endfacet
  facet normal 0 0 -1
    outer loop
      vertex 1.17372 48.1801 0
      vertex 0 45.8 0
      vertex 0.878679 47.9213 0
    endloop
  endfacet
  facet normal 0 0 -1
    outer loop
      vertex 0 3 0
      vertex 0.401923 1.5 0
      vertex 0.228361 1.85195 0
    endloop
  endfacet
  facet normal 0 0 -1
    outer loop
      vertex 0.878679 47.9213 0
      vertex 0 45.8 0
      vertex 0.61994 47.6263 0
    endloop
  endfacet
  facet normal 0 0 -1
    outer loop
      vertex 0 3 0
      vertex 0.228361 1.85195 0
      vertex 0.102222 2.22354 0
    endloop
  endfacet
  facet normal 0 0 -1
    outer loop
      vertex 0.61994 47.6263 0
      vertex 0 45.8 0
      vertex 0.401923 47.3 0
    endloop
  endfacet
  facet normal 0 0 -1
    outer loop
      vertex 0 3 0
      vertex 0.102222 2.22354 0
      vertex 0.0256653 2.60842 0
    endloop
  endfacet
  facet normal 0 0 -1
    outer loop
      vertex 0.401923 47.3 0
      vertex 0 45.8 0
      vertex 0.228361 46.9481 0
    endloop
  endfacet
  facet normal 0 0 -1
    outer loop
      vertex 0.228361 46.9481 0
      vertex 0 45.8 0
      vertex 0.102222 46.5765 0
    endloop
  endfacet
  facet normal 0 0 -1
    outer loop
      vertex 0.102222 46.5765 0
      vertex 0 45.8 0
      vertex 0.0256653 46.1916 0
    endloop
  endfacet
  facet normal 0.981058 0.193714 0
    outer loop
      vertex 154.974 46.1916 86.9
      vertex 154.898 46.5765 0
      vertex 154.898 46.5765 86.9
    endloop
  endfacet
  facet normal 0.981058 0.193714 0
    outer loop
      vertex 154.898 46.5765 0
      vertex 154.974 46.1916 86.9
      vertex 154.974 46.1916 0
    endloop
  endfacet
  facet normal -0.19495 0.980813 0
    outer loop
      vertex 2.60842 48.7743 0
      vertex 2.22354 48.6978 86.9
      vertex 2.60842 48.7743 86.9
    endloop
  endfacet
  facet normal -0.19495 0.980813 0
    outer loop
      vertex 2.22354 48.6978 86.9
      vertex 2.60842 48.7743 0
      vertex 2.22354 48.6978 0
    endloop
  endfacet
  facet normal -0.997859 0.0653993 0
    outer loop
      vertex 0 45.8 0
      vertex 0.0256653 46.1916 86.9
      vertex 0.0256653 46.1916 0
    endloop
  endfacet
  facet normal -0.997859 0.0653993 0
    outer loop
      vertex 0.0256653 46.1916 86.9
      vertex 0 45.8 0
      vertex 0 45.8 86.9
    endloop
  endfacet
  facet normal -0.980788 0.195079 0
    outer loop
      vertex 0.0256653 46.1916 0
      vertex 0.102222 46.5765 86.9
      vertex 0.102222 46.5765 0
    endloop
  endfacet
  facet normal -0.980788 0.195079 0
    outer loop
      vertex 0.102222 46.5765 86.9
      vertex 0.0256653 46.1916 0
      vertex 0.0256653 46.1916 86.9
    endloop
  endfacet
  facet normal -0.751801 0.65939 0
    outer loop
      vertex 0.61994 47.6263 0
      vertex 0.878679 47.9213 86.9
      vertex 0.878679 47.9213 0
    endloop
  endfacet
  facet normal -0.751801 0.65939 0
    outer loop
      vertex 0.878679 47.9213 86.9
      vertex 0.61994 47.6263 0
      vertex 0.61994 47.6263 86.9
    endloop
  endfacet
  facet normal -0.980786 -0.195089 0
    outer loop
      vertex 0.102222 2.22354 0
      vertex 0.0256653 2.60842 86.9
      vertex 0.0256653 2.60842 0
    endloop
  endfacet
  facet normal -0.980786 -0.195089 0
    outer loop
      vertex 0.0256653 2.60842 86.9
      vertex 0.102222 2.22354 0
      vertex 0.102222 2.22354 86.9
    endloop
  endfacet
  facet normal -0.997859 -0.0654026 0
    outer loop
      vertex 0.0256653 2.60842 0
      vertex 0 3 86.9
      vertex 0 3 0
    endloop
  endfacet
  facet normal -0.997859 -0.0654026 0
    outer loop
      vertex 0 3 86.9
      vertex 0.0256653 2.60842 0
      vertex 0.0256653 2.60842 86.9
    endloop
  endfacet
  facet normal -0.659426 0.751769 0
    outer loop
      vertex 1.17372 48.1801 0
      vertex 0.878679 47.9213 86.9
      vertex 1.17372 48.1801 86.9
    endloop
  endfacet
  facet normal -0.659426 0.751769 0
    outer loop
      vertex 0.878679 47.9213 86.9
      vertex 1.17372 48.1801 0
      vertex 0.878679 47.9213 0
    endloop
  endfacet
  facet normal -0.555547 0.831485 0
    outer loop
      vertex 1.5 48.3981 0
      vertex 1.17372 48.1801 86.9
      vertex 1.5 48.3981 86.9
    endloop
  endfacet
  facet normal -0.555547 0.831485 0
    outer loop
      vertex 1.17372 48.1801 86.9
      vertex 1.5 48.3981 0
      vertex 1.17372 48.1801 0
    endloop
  endfacet
  facet normal -0.44216 0.896936 0
    outer loop
      vertex 1.85195 48.5716 0
      vertex 1.5 48.3981 86.9
      vertex 1.85195 48.5716 86.9
    endloop
  endfacet
  facet normal -0.44216 0.896936 0
    outer loop
      vertex 1.5 48.3981 86.9
      vertex 1.85195 48.5716 0
      vertex 1.5 48.3981 0
    endloop
  endfacet
  facet normal -1 0 0
    outer loop
      vertex 152.6 40.4 2.4
      vertex 152.6 46.4 86.9
      vertex 152.6 46.4 2.4
    endloop
  endfacet
  facet normal -1 -0 0
    outer loop
      vertex 152.6 46.4 86.9
      vertex 152.6 40.4 2.4
      vertex 152.6 40.4 86.9
    endloop
  endfacet
  facet normal -1 0 0
    outer loop
      vertex 152.6 2.4 2.4
      vertex 152.6 8.4 86.9
      vertex 152.6 8.4 2.4
    endloop
  endfacet
  facet normal -1 -0 0
    outer loop
      vertex 152.6 8.4 86.9
      vertex 152.6 2.4 2.4
      vertex 152.6 2.4 86.9
    endloop
  endfacet
  facet normal -1 0 0
    outer loop
      vertex 152.6 25.2 2.4
      vertex 152.6 31.2 86.9
      vertex 152.6 31.2 2.4
    endloop
  endfacet
  facet normal -1 -0 0
    outer loop
      vertex 152.6 31.2 86.9
      vertex 152.6 25.2 2.4
      vertex 152.6 25.2 86.9
    endloop
  endfacet
  facet normal -1 0 0
    outer loop
      vertex 152.6 17.6 2.4
      vertex 152.6 23.6 86.9
      vertex 152.6 23.6 2.4
    endloop
  endfacet
  facet normal -1 -0 0
    outer loop
      vertex 152.6 23.6 86.9
      vertex 152.6 17.6 2.4
      vertex 152.6 17.6 86.9
    endloop
  endfacet
  facet normal -1 0 0
    outer loop
      vertex 152.6 32.8 2.4
      vertex 152.6 38.8 86.9
      vertex 152.6 38.8 2.4
    endloop
  endfacet
  facet normal -1 -0 0
    outer loop
      vertex 152.6 38.8 86.9
      vertex 152.6 32.8 2.4
      vertex 152.6 32.8 86.9
    endloop
  endfacet
  facet normal -1 0 0
    outer loop
      vertex 152.6 10 2.4
      vertex 152.6 16 86.9
      vertex 152.6 16 2.4
    endloop
  endfacet
  facet normal -1 -0 0
    outer loop
      vertex 152.6 16 86.9
      vertex 152.6 10 2.4
      vertex 152.6 10 86.9
    endloop
  endfacet
  facet normal -0 0 1
    outer loop
      vertex 2.4 16 2.4
      vertex 6.4 10 2.4
      vertex 6.4 16 2.4
    endloop
  endfacet
  facet normal 0 0 1
    outer loop
      vertex 6.4 10 2.4
      vertex 2.4 16 2.4
      vertex 2.4 10 2.4
    endloop
  endfacet
  facet normal -0 0 1
    outer loop
      vertex 2.4 23.6 2.4
      vertex 6.4 17.6 2.4
      vertex 6.4 23.6 2.4
    endloop
  endfacet
  facet normal 0 0 1
    outer loop
      vertex 6.4 17.6 2.4
      vertex 2.4 23.6 2.4
      vertex 2.4 17.6 2.4
    endloop
  endfacet
  facet normal -0 0 1
    outer loop
      vertex 2.4 31.2 2.4
      vertex 6.4 25.2 2.4
      vertex 6.4 31.2 2.4
    endloop
  endfacet
  facet normal 0 0 1
    outer loop
      vertex 6.4 25.2 2.4
      vertex 2.4 31.2 2.4
      vertex 2.4 25.2 2.4
    endloop
  endfacet
  facet normal -0 0 1
    outer loop
      vertex 2.4 38.8 2.4
      vertex 6.4 32.8 2.4
      vertex 6.4 38.8 2.4
    endloop
  endfacet
  facet normal 0 0 1
    outer loop
      vertex 6.4 32.8 2.4
      vertex 2.4 38.8 2.4
      vertex 2.4 32.8 2.4
    endloop
  endfacet
  facet normal -0 0 1
    outer loop
      vertex 57.5 16 2.4
      vertex 97.5 10 2.4
      vertex 97.5 16 2.4
    endloop
  endfacet
  facet normal 0 0 1
    outer loop
      vertex 97.5 10 2.4
      vertex 57.5 16 2.4
      vertex 57.5 10 2.4
    endloop
  endfacet
  facet normal -0 0 1
    outer loop
      vertex 57.5 23.6 2.4
      vertex 97.5 17.6 2.4
      vertex 97.5 23.6 2.4
    endloop
  endfacet
  facet normal 0 0 1
    outer loop
      vertex 97.5 17.6 2.4
      vertex 57.5 23.6 2.4
      vertex 57.5 17.6 2.4
    endloop
  endfacet
  facet normal -0 0 1
    outer loop
      vertex 57.5 31.2 2.4
      vertex 97.5 25.2 2.4
      vertex 97.5 31.2 2.4
    endloop
  endfacet
  facet normal 0 0 1
    outer loop
      vertex 97.5 25.2 2.4
      vertex 57.5 31.2 2.4
      vertex 57.5 25.2 2.4
    endloop
  endfacet
  facet normal -0 0 1
    outer loop
      vertex 57.5 38.8 2.4
      vertex 97.5 32.8 2.4
      vertex 97.5 38.8 2.4
    endloop
  endfacet
  facet normal 0 0 1
    outer loop
      vertex 97.5 32.8 2.4
      vertex 57.5 38.8 2.4
      vertex 57.5 32.8 2.4
    endloop
  endfacet
  facet normal 0 0 1
    outer loop
      vertex 152.6 46.4 2.4
      vertex 148.6 40.4 2.4
      vertex 152.6 40.4 2.4
    endloop
  endfacet
  facet normal 0 0 1
    outer loop
      vertex 97.5 38.8 2.4
      vertex 148.6 38.8 2.4
      vertex 148.6 40.4 2.4
    endloop
  endfacet
  facet normal 0 0 1
    outer loop
      vertex 148.6 38.8 2.4
      vertex 97.5 38.8 2.4
      vertex 148.6 32.8 2.4
    endloop
  endfacet
  facet normal 0 0 1
    outer loop
      vertex 148.6 32.8 2.4
      vertex 97.5 32.8 2.4
      vertex 148.6 31.2 2.4
    endloop
  endfacet
  facet normal 0 0 1
    outer loop
      vertex 97.5 31.2 2.4
      vertex 148.6 31.2 2.4
      vertex 97.5 32.8 2.4
    endloop
  endfacet
  facet normal 0 0 1
    outer loop
      vertex 97.5 25.2 2.4
      vertex 148.6 25.2 2.4
      vertex 97.5 31.2 2.4
    endloop
  endfacet
  facet normal 0 0 1
    outer loop
      vertex 148.6 25.2 2.4
      vertex 97.5 25.2 2.4
      vertex 148.6 23.6 2.4
    endloop
  endfacet
  facet normal 0 0 1
    outer loop
      vertex 148.6 23.6 2.4
      vertex 97.5 23.6 2.4
      vertex 148.6 17.6 2.4
    endloop
  endfacet
  facet normal 0 0 1
    outer loop
      vertex 97.5 17.6 2.4
      vertex 148.6 17.6 2.4
      vertex 97.5 23.6 2.4
    endloop
  endfacet
  facet normal 0 0 1
    outer loop
      vertex 97.5 38.8 2.4
      vertex 148.6 40.4 2.4
      vertex 97.5 40.4 2.4
    endloop
  endfacet
  facet normal 0 0 1
    outer loop
      vertex 152.6 46.4 2.4
      vertex 97.5 40.4 2.4
      vertex 148.6 40.4 2.4
    endloop
  endfacet
  facet normal 0 0 1
    outer loop
      vertex 152.6 46.4 2.4
      vertex 57.5 40.4 2.4
      vertex 97.5 40.4 2.4
    endloop
  endfacet
  facet normal 0 0 1
    outer loop
      vertex 6.4 38.8 2.4
      vertex 57.5 38.8 2.4
      vertex 57.5 40.4 2.4
    endloop
  endfacet
  facet normal 0 0 1
    outer loop
      vertex 57.5 38.8 2.4
      vertex 6.4 38.8 2.4
      vertex 57.5 32.8 2.4
    endloop
  endfacet
  facet normal 0 0 1
    outer loop
      vertex 57.5 32.8 2.4
      vertex 6.4 32.8 2.4
      vertex 57.5 31.2 2.4
    endloop
  endfacet
  facet normal 0 0 1
    outer loop
      vertex 6.4 31.2 2.4
      vertex 57.5 31.2 2.4
      vertex 6.4 32.8 2.4
    endloop
  endfacet
  facet normal 0 0 1
    outer loop
      vertex 6.4 25.2 2.4
      vertex 57.5 25.2 2.4
      vertex 6.4 31.2 2.4
    endloop
  endfacet
  facet normal 0 0 1
    outer loop
      vertex 57.5 25.2 2.4
      vertex 6.4 25.2 2.4
      vertex 57.5 23.6 2.4
    endloop
  endfacet
  facet normal 0 0 1
    outer loop
      vertex 57.5 23.6 2.4
      vertex 6.4 23.6 2.4
      vertex 57.5 17.6 2.4
    endloop
  endfacet
  facet normal 0 0 1
    outer loop
      vertex 6.4 17.6 2.4
      vertex 57.5 17.6 2.4
      vertex 6.4 23.6 2.4
    endloop
  endfacet
  facet normal 0 0 1
    outer loop
      vertex 6.4 38.8 2.4
      vertex 57.5 40.4 2.4
      vertex 6.4 40.4 2.4
    endloop
  endfacet
  facet normal -0 0 1
    outer loop
      vertex 2.4 46.4 2.4
      vertex 57.5 40.4 2.4
      vertex 152.6 46.4 2.4
    endloop
  endfacet
  facet normal 0 0 1
    outer loop
      vertex 57.5 40.4 2.4
      vertex 2.4 46.4 2.4
      vertex 6.4 40.4 2.4
    endloop
  endfacet
  facet normal 0 0 1
    outer loop
      vertex 6.4 40.4 2.4
      vertex 2.4 46.4 2.4
      vertex 2.4 40.4 2.4
    endloop
  endfacet
  facet normal -0 0 1
    outer loop
      vertex 148.6 38.8 2.4
      vertex 152.6 32.8 2.4
      vertex 152.6 38.8 2.4
    endloop
  endfacet
  facet normal 0 0 1
    outer loop
      vertex 152.6 32.8 2.4
      vertex 148.6 38.8 2.4
      vertex 148.6 32.8 2.4
    endloop
  endfacet
  facet normal -0 0 1
    outer loop
      vertex 148.6 31.2 2.4
      vertex 152.6 25.2 2.4
      vertex 152.6 31.2 2.4
    endloop
  endfacet
  facet normal 0 0 1
    outer loop
      vertex 152.6 25.2 2.4
      vertex 148.6 31.2 2.4
      vertex 148.6 25.2 2.4
    endloop
  endfacet
  facet normal -0 0 1
    outer loop
      vertex 148.6 23.6 2.4
      vertex 152.6 17.6 2.4
      vertex 152.6 23.6 2.4
    endloop
  endfacet
  facet normal 0 0 1
    outer loop
      vertex 152.6 17.6 2.4
      vertex 148.6 23.6 2.4
      vertex 148.6 17.6 2.4
    endloop
  endfacet
  facet normal -0 0 1
    outer loop
      vertex 148.6 16 2.4
      vertex 152.6 10 2.4
      vertex 152.6 16 2.4
    endloop
  endfacet
  facet normal 0 0 1
    outer loop
      vertex 152.6 10 2.4
      vertex 148.6 16 2.4
      vertex 148.6 10 2.4
    endloop
  endfacet
  facet normal -0 0 1
    outer loop
      vertex 148.6 8.4 2.4
      vertex 152.6 2.4 2.4
      vertex 152.6 8.4 2.4
    endloop
  endfacet
  facet normal 0 0 1
    outer loop
      vertex 148.6 32.8 2.4
      vertex 97.5 38.8 2.4
      vertex 97.5 32.8 2.4
    endloop
  endfacet
  facet normal 0 0 1
    outer loop
      vertex 148.6 31.2 2.4
      vertex 97.5 31.2 2.4
      vertex 148.6 25.2 2.4
    endloop
  endfacet
  facet normal 0 0 1
    outer loop
      vertex 97.5 23.6 2.4
      vertex 148.6 23.6 2.4
      vertex 97.5 25.2 2.4
    endloop
  endfacet
  facet normal 0 0 1
    outer loop
      vertex 148.6 17.6 2.4
      vertex 97.5 17.6 2.4
      vertex 148.6 16 2.4
    endloop
  endfacet
  facet normal 0 0 1
    outer loop
      vertex 97.5 16 2.4
      vertex 148.6 16 2.4
      vertex 97.5 17.6 2.4
    endloop
  endfacet
  facet normal 0 0 1
    outer loop
      vertex 148.6 16 2.4
      vertex 97.5 16 2.4
      vertex 148.6 10 2.4
    endloop
  endfacet
  facet normal 0 0 1
    outer loop
      vertex 97.5 10 2.4
      vertex 148.6 10 2.4
      vertex 97.5 16 2.4
    endloop
  endfacet
  facet normal 0 0 1
    outer loop
      vertex 148.6 10 2.4
      vertex 97.5 10 2.4
      vertex 148.6 8.4 2.4
    endloop
  endfacet
  facet normal 0 0 1
    outer loop
      vertex 97.5 8.4 2.4
      vertex 148.6 8.4 2.4
      vertex 97.5 10 2.4
    endloop
  endfacet
  facet normal 0 0 1
    outer loop
      vertex 148.6 8.4 2.4
      vertex 97.5 8.4 2.4
      vertex 152.6 2.4 2.4
    endloop
  endfacet
  facet normal -0 0 1
    outer loop
      vertex 57.5 8.4 2.4
      vertex 152.6 2.4 2.4
      vertex 97.5 8.4 2.4
    endloop
  endfacet
  facet normal 0 0 1
    outer loop
      vertex 57.5 32.8 2.4
      vertex 6.4 38.8 2.4
      vertex 6.4 32.8 2.4
    endloop
  endfacet
  facet normal 0 0 1
    outer loop
      vertex 57.5 31.2 2.4
      vertex 6.4 31.2 2.4
      vertex 57.5 25.2 2.4
    endloop
  endfacet
  facet normal 0 0 1
    outer loop
      vertex 6.4 23.6 2.4
      vertex 57.5 23.6 2.4
      vertex 6.4 25.2 2.4
    endloop
  endfacet
  facet normal 0 0 1
    outer loop
      vertex 57.5 17.6 2.4
      vertex 6.4 17.6 2.4
      vertex 57.5 16 2.4
    endloop
  endfacet
  facet normal 0 0 1
    outer loop
      vertex 6.4 16 2.4
      vertex 57.5 16 2.4
      vertex 6.4 17.6 2.4
    endloop
  endfacet
  facet normal 0 0 1
    outer loop
      vertex 57.5 16 2.4
      vertex 6.4 16 2.4
      vertex 57.5 10 2.4
    endloop
  endfacet
  facet normal 0 0 1
    outer loop
      vertex 6.4 10 2.4
      vertex 57.5 10 2.4
      vertex 6.4 16 2.4
    endloop
  endfacet
  facet normal 0 0 1
    outer loop
      vertex 57.5 10 2.4
      vertex 6.4 10 2.4
      vertex 57.5 8.4 2.4
    endloop
  endfacet
  facet normal 0 0 1
    outer loop
      vertex 6.4 8.4 2.4
      vertex 57.5 8.4 2.4
      vertex 6.4 10 2.4
    endloop
  endfacet
  facet normal 0 0 1
    outer loop
      vertex 2.4 2.4 2.4
      vertex 57.5 8.4 2.4
      vertex 6.4 8.4 2.4
    endloop
  endfacet
  facet normal 0 0 1
    outer loop
      vertex 2.4 2.4 2.4
      vertex 6.4 8.4 2.4
      vertex 2.4 8.4 2.4
    endloop
  endfacet
  facet normal 0 0 1
    outer loop
      vertex 57.5 8.4 2.4
      vertex 2.4 2.4 2.4
      vertex 152.6 2.4 2.4
    endloop
  endfacet
  facet normal 1 -0 0
    outer loop
      vertex 2.4 2.4 86.9
      vertex 2.4 8.4 2.4
      vertex 2.4 8.4 86.9
    endloop
  endfacet
  facet normal 1 0 0
    outer loop
      vertex 2.4 8.4 2.4
      vertex 2.4 2.4 86.9
      vertex 2.4 2.4 2.4
    endloop
  endfacet
  facet normal 1 -0 0
    outer loop
      vertex 2.4 40.4 86.9
      vertex 2.4 46.4 2.4
      vertex 2.4 46.4 86.9
    endloop
  endfacet
  facet normal 1 0 0
    outer loop
      vertex 2.4 46.4 2.4
      vertex 2.4 40.4 86.9
      vertex 2.4 40.4 2.4
    endloop
  endfacet
  facet normal 1 -0 0
    outer loop
      vertex 2.4 10 86.9
      vertex 2.4 16 2.4
      vertex 2.4 16 86.9
    endloop
  endfacet
  facet normal 1 0 0
    outer loop
      vertex 2.4 16 2.4
      vertex 2.4 10 86.9
      vertex 2.4 10 2.4
    endloop
  endfacet
  facet normal 1 -0 0
    outer loop
      vertex 2.4 17.6 86.9
      vertex 2.4 23.6 2.4
      vertex 2.4 23.6 86.9
    endloop
  endfacet
  facet normal 1 0 0
    outer loop
      vertex 2.4 23.6 2.4
      vertex 2.4 17.6 86.9
      vertex 2.4 17.6 2.4
    endloop
  endfacet
  facet normal 1 -0 0
    outer loop
      vertex 2.4 32.8 86.9
      vertex 2.4 38.8 2.4
      vertex 2.4 38.8 86.9
    endloop
  endfacet
  facet normal 1 0 0
    outer loop
      vertex 2.4 38.8 2.4
      vertex 2.4 32.8 86.9
      vertex 2.4 32.8 2.4
    endloop
  endfacet
  facet normal 1 -0 0
    outer loop
      vertex 2.4 25.2 86.9
      vertex 2.4 31.2 2.4
      vertex 2.4 31.2 86.9
    endloop
  endfacet
  facet normal 1 0 0
    outer loop
      vertex 2.4 31.2 2.4
      vertex 2.4 25.2 86.9
      vertex 2.4 25.2 2.4
    endloop
  endfacet
  facet normal 0 -1 0
    outer loop
      vertex 2.4 46.4 2.4
      vertex 152.6 46.4 86.9
      vertex 2.4 46.4 86.9
    endloop
  endfacet
  facet normal 0 -1 -0
    outer loop
      vertex 152.6 46.4 86.9
      vertex 2.4 46.4 2.4
      vertex 152.6 46.4 2.4
    endloop
  endfacet
  facet normal 0 1 -0
    outer loop
      vertex 152.6 2.4 2.4
      vertex 2.4 2.4 86.9
      vertex 152.6 2.4 86.9
    endloop
  endfacet
  facet normal 0 1 0
    outer loop
      vertex 2.4 2.4 86.9
      vertex 152.6 2.4 2.4
      vertex 2.4 2.4 2.4
    endloop
  endfacet
  facet normal 1 -0 0
    outer loop
      vertex 6.4 8.4 86.9
      vertex 6.4 10 2.4
      vertex 6.4 10 86.9
    endloop
  endfacet
  facet normal 1 0 0
    outer loop
      vertex 6.4 10 2.4
      vertex 6.4 8.4 86.9
      vertex 6.4 8.4 2.4
    endloop
  endfacet
  facet normal 0 1 -0
    outer loop
      vertex 6.4 10 2.4
      vertex 2.4 10 86.9
      vertex 6.4 10 86.9
    endloop
  endfacet
  facet normal 0 1 0
    outer loop
      vertex 2.4 10 86.9
      vertex 6.4 10 2.4
      vertex 2.4 10 2.4
    endloop
  endfacet
  facet normal 0 -1 0
    outer loop
      vertex 2.4 8.4 2.4
      vertex 6.4 8.4 86.9
      vertex 2.4 8.4 86.9
    endloop
  endfacet
  facet normal 0 -1 -0
    outer loop
      vertex 6.4 8.4 86.9
      vertex 2.4 8.4 2.4
      vertex 6.4 8.4 2.4
    endloop
  endfacet
  facet normal -1 0 0
    outer loop
      vertex 148.6 8.4 2.4
      vertex 148.6 10 86.9
      vertex 148.6 10 2.4
    endloop
  endfacet
  facet normal -1 -0 0
    outer loop
      vertex 148.6 10 86.9
      vertex 148.6 8.4 2.4
      vertex 148.6 8.4 86.9
    endloop
  endfacet
  facet normal 0 1 -0
    outer loop
      vertex 152.6 10 2.4
      vertex 148.6 10 86.9
      vertex 152.6 10 86.9
    endloop
  endfacet
  facet normal 0 1 0
    outer loop
      vertex 148.6 10 86.9
      vertex 152.6 10 2.4
      vertex 148.6 10 2.4
    endloop
  endfacet
  facet normal 0 -1 0
    outer loop
      vertex 148.6 8.4 2.4
      vertex 152.6 8.4 86.9
      vertex 148.6 8.4 86.9
    endloop
  endfacet
  facet normal 0 -1 -0
    outer loop
      vertex 152.6 8.4 86.9
      vertex 148.6 8.4 2.4
      vertex 152.6 8.4 2.4
    endloop
  endfacet
  facet normal 1 -0 0
    outer loop
      vertex 97.5 8.4 7.4
      vertex 97.5 10 2.4
      vertex 97.5 10 7.4
    endloop
  endfacet
  facet normal 1 0 0
    outer loop
      vertex 97.5 10 2.4
      vertex 97.5 8.4 7.4
      vertex 97.5 8.4 2.4
    endloop
  endfacet
  facet normal -0 0 1
    outer loop
      vertex 57.5 10 7.4
      vertex 97.5 8.4 7.4
      vertex 97.5 10 7.4
    endloop
  endfacet
  facet normal 0 0 1
    outer loop
      vertex 97.5 8.4 7.4
      vertex 57.5 10 7.4
      vertex 57.5 8.4 7.4
    endloop
  endfacet
  facet normal -1 0 0
    outer loop
      vertex 57.5 8.4 2.4
      vertex 57.5 10 7.4
      vertex 57.5 10 2.4
    endloop
  endfacet
  facet normal -1 -0 0
    outer loop
      vertex 57.5 10 7.4
      vertex 57.5 8.4 2.4
      vertex 57.5 8.4 7.4
    endloop
  endfacet
  facet normal 0 1 -0
    outer loop
      vertex 97.5 10 2.4
      vertex 57.5 10 7.4
      vertex 97.5 10 7.4
    endloop
  endfacet
  facet normal 0 1 0
    outer loop
      vertex 57.5 10 7.4
      vertex 97.5 10 2.4
      vertex 57.5 10 2.4
    endloop
  endfacet
  facet normal 0 -1 0
    outer loop
      vertex 57.5 8.4 2.4
      vertex 97.5 8.4 7.4
      vertex 57.5 8.4 7.4
    endloop
  endfacet
  facet normal 0 -1 -0
    outer loop
      vertex 97.5 8.4 7.4
      vertex 57.5 8.4 2.4
      vertex 97.5 8.4 2.4
    endloop
  endfacet
  facet normal 1 -0 0
    outer loop
      vertex 6.4 16 86.9
      vertex 6.4 17.6 2.4
      vertex 6.4 17.6 86.9
    endloop
  endfacet
  facet normal 1 0 0
    outer loop
      vertex 6.4 17.6 2.4
      vertex 6.4 16 86.9
      vertex 6.4 16 2.4
    endloop
  endfacet
  facet normal 0 1 -0
    outer loop
      vertex 6.4 17.6 2.4
      vertex 2.4 17.6 86.9
      vertex 6.4 17.6 86.9
    endloop
  endfacet
  facet normal 0 1 0
    outer loop
      vertex 2.4 17.6 86.9
      vertex 6.4 17.6 2.4
      vertex 2.4 17.6 2.4
    endloop
  endfacet
  facet normal 0 -1 0
    outer loop
      vertex 2.4 16 2.4
      vertex 6.4 16 86.9
      vertex 2.4 16 86.9
    endloop
  endfacet
  facet normal 0 -1 -0
    outer loop
      vertex 6.4 16 86.9
      vertex 2.4 16 2.4
      vertex 6.4 16 2.4
    endloop
  endfacet
  facet normal -1 0 0
    outer loop
      vertex 148.6 16 2.4
      vertex 148.6 17.6 86.9
      vertex 148.6 17.6 2.4
    endloop
  endfacet
  facet normal -1 -0 0
    outer loop
      vertex 148.6 17.6 86.9
      vertex 148.6 16 2.4
      vertex 148.6 16 86.9
    endloop
  endfacet
  facet normal 0 1 -0
    outer loop
      vertex 152.6 17.6 2.4
      vertex 148.6 17.6 86.9
      vertex 152.6 17.6 86.9
    endloop
  endfacet
  facet normal 0 1 0
    outer loop
      vertex 148.6 17.6 86.9
      vertex 152.6 17.6 2.4
      vertex 148.6 17.6 2.4
    endloop
  endfacet
  facet normal 0 -1 0
    outer loop
      vertex 148.6 16 2.4
      vertex 152.6 16 86.9
      vertex 148.6 16 86.9
    endloop
  endfacet
  facet normal 0 -1 -0
    outer loop
      vertex 152.6 16 86.9
      vertex 148.6 16 2.4
      vertex 152.6 16 2.4
    endloop
  endfacet
  facet normal 1 -0 0
    outer loop
      vertex 97.5 16 7.4
      vertex 97.5 17.6 2.4
      vertex 97.5 17.6 7.4
    endloop
  endfacet
  facet normal 1 0 0
    outer loop
      vertex 97.5 17.6 2.4
      vertex 97.5 16 7.4
      vertex 97.5 16 2.4
    endloop
  endfacet
  facet normal -0 0 1
    outer loop
      vertex 57.5 17.6 7.4
      vertex 97.5 16 7.4
      vertex 97.5 17.6 7.4
    endloop
  endfacet
  facet normal 0 0 1
    outer loop
      vertex 97.5 16 7.4
      vertex 57.5 17.6 7.4
      vertex 57.5 16 7.4
    endloop
  endfacet
  facet normal -1 0 0
    outer loop
      vertex 57.5 16 2.4
      vertex 57.5 17.6 7.4
      vertex 57.5 17.6 2.4
    endloop
  endfacet
  facet normal -1 -0 0
    outer loop
      vertex 57.5 17.6 7.4
      vertex 57.5 16 2.4
      vertex 57.5 16 7.4
    endloop
  endfacet
  facet normal 0 1 -0
    outer loop
      vertex 97.5 17.6 2.4
      vertex 57.5 17.6 7.4
      vertex 97.5 17.6 7.4
    endloop
  endfacet
  facet normal 0 1 0
    outer loop
      vertex 57.5 17.6 7.4
      vertex 97.5 17.6 2.4
      vertex 57.5 17.6 2.4
    endloop
  endfacet
  facet normal 0 -1 0
    outer loop
      vertex 57.5 16 2.4
      vertex 97.5 16 7.4
      vertex 57.5 16 7.4
    endloop
  endfacet
  facet normal 0 -1 -0
    outer loop
      vertex 97.5 16 7.4
      vertex 57.5 16 2.4
      vertex 97.5 16 2.4
    endloop
  endfacet
  facet normal 1 -0 0
    outer loop
      vertex 6.4 23.6 86.9
      vertex 6.4 25.2 2.4
      vertex 6.4 25.2 86.9
    endloop
  endfacet
  facet normal 1 0 0
    outer loop
      vertex 6.4 25.2 2.4
      vertex 6.4 23.6 86.9
      vertex 6.4 23.6 2.4
    endloop
  endfacet
  facet normal 0 1 -0
    outer loop
      vertex 6.4 25.2 2.4
      vertex 2.4 25.2 86.9
      vertex 6.4 25.2 86.9
    endloop
  endfacet
  facet normal 0 1 0
    outer loop
      vertex 2.4 25.2 86.9
      vertex 6.4 25.2 2.4
      vertex 2.4 25.2 2.4
    endloop
  endfacet
  facet normal 0 -1 0
    outer loop
      vertex 2.4 23.6 2.4
      vertex 6.4 23.6 86.9
      vertex 2.4 23.6 86.9
    endloop
  endfacet
  facet normal 0 -1 -0
    outer loop
      vertex 6.4 23.6 86.9
      vertex 2.4 23.6 2.4
      vertex 6.4 23.6 2.4
    endloop
  endfacet
  facet normal -1 0 0
    outer loop
      vertex 148.6 23.6 2.4
      vertex 148.6 25.2 86.9
      vertex 148.6 25.2 2.4
    endloop
  endfacet
  facet normal -1 -0 0
    outer loop
      vertex 148.6 25.2 86.9
      vertex 148.6 23.6 2.4
      vertex 148.6 23.6 86.9
    endloop
  endfacet
  facet normal 0 1 -0
    outer loop
      vertex 152.6 25.2 2.4
      vertex 148.6 25.2 86.9
      vertex 152.6 25.2 86.9
    endloop
  endfacet
  facet normal 0 1 0
    outer loop
      vertex 148.6 25.2 86.9
      vertex 152.6 25.2 2.4
      vertex 148.6 25.2 2.4
    endloop
  endfacet
  facet normal 0 -1 0
    outer loop
      vertex 148.6 23.6 2.4
      vertex 152.6 23.6 86.9
      vertex 148.6 23.6 86.9
    endloop
  endfacet
  facet normal 0 -1 -0
    outer loop
      vertex 152.6 23.6 86.9
      vertex 148.6 23.6 2.4
      vertex 152.6 23.6 2.4
    endloop
  endfacet
  facet normal 1 -0 0
    outer loop
      vertex 97.5 23.6 7.4
      vertex 97.5 25.2 2.4
      vertex 97.5 25.2 7.4
    endloop
  endfacet
  facet normal 1 0 0
    outer loop
      vertex 97.5 25.2 2.4
      vertex 97.5 23.6 7.4
      vertex 97.5 23.6 2.4
    endloop
  endfacet
  facet normal -0 0 1
    outer loop
      vertex 57.5 25.2 7.4
      vertex 97.5 23.6 7.4
      vertex 97.5 25.2 7.4
    endloop
  endfacet
  facet normal 0 0 1
    outer loop
      vertex 97.5 23.6 7.4
      vertex 57.5 25.2 7.4
      vertex 57.5 23.6 7.4
    endloop
  endfacet
  facet normal -1 0 0
    outer loop
      vertex 57.5 23.6 2.4
      vertex 57.5 25.2 7.4
      vertex 57.5 25.2 2.4
    endloop
  endfacet
  facet normal -1 -0 0
    outer loop
      vertex 57.5 25.2 7.4
      vertex 57.5 23.6 2.4
      vertex 57.5 23.6 7.4
    endloop
  endfacet
  facet normal 0 1 -0
    outer loop
      vertex 97.5 25.2 2.4
      vertex 57.5 25.2 7.4
      vertex 97.5 25.2 7.4
    endloop
  endfacet
  facet normal 0 1 0
    outer loop
      vertex 57.5 25.2 7.4
      vertex 97.5 25.2 2.4
      vertex 57.5 25.2 2.4
    endloop
  endfacet
  facet normal 0 -1 0
    outer loop
      vertex 57.5 23.6 2.4
      vertex 97.5 23.6 7.4
      vertex 57.5 23.6 7.4
    endloop
  endfacet
  facet normal 0 -1 -0
    outer loop
      vertex 97.5 23.6 7.4
      vertex 57.5 23.6 2.4
      vertex 97.5 23.6 2.4
    endloop
  endfacet
  facet normal 1 -0 0
    outer loop
      vertex 6.4 31.2 86.9
      vertex 6.4 32.8 2.4
      vertex 6.4 32.8 86.9
    endloop
  endfacet
  facet normal 1 0 0
    outer loop
      vertex 6.4 32.8 2.4
      vertex 6.4 31.2 86.9
      vertex 6.4 31.2 2.4
    endloop
  endfacet
  facet normal 0 1 -0
    outer loop
      vertex 6.4 32.8 2.4
      vertex 2.4 32.8 86.9
      vertex 6.4 32.8 86.9
    endloop
  endfacet
  facet normal 0 1 0
    outer loop
      vertex 2.4 32.8 86.9
      vertex 6.4 32.8 2.4
      vertex 2.4 32.8 2.4
    endloop
  endfacet
  facet normal 0 -1 0
    outer loop
      vertex 2.4 31.2 2.4
      vertex 6.4 31.2 86.9
      vertex 2.4 31.2 86.9
    endloop
  endfacet
  facet normal 0 -1 -0
    outer loop
      vertex 6.4 31.2 86.9
      vertex 2.4 31.2 2.4
      vertex 6.4 31.2 2.4
    endloop
  endfacet
  facet normal -1 0 0
    outer loop
      vertex 148.6 31.2 2.4
      vertex 148.6 32.8 86.9
      vertex 148.6 32.8 2.4
    endloop
  endfacet
  facet normal -1 -0 0
    outer loop
      vertex 148.6 32.8 86.9
      vertex 148.6 31.2 2.4
      vertex 148.6 31.2 86.9
    endloop
  endfacet
  facet normal 0 1 -0
    outer loop
      vertex 152.6 32.8 2.4
      vertex 148.6 32.8 86.9
      vertex 152.6 32.8 86.9
    endloop
  endfacet
  facet normal 0 1 0
    outer loop
      vertex 148.6 32.8 86.9
      vertex 152.6 32.8 2.4
      vertex 148.6 32.8 2.4
    endloop
  endfacet
  facet normal 0 -1 0
    outer loop
      vertex 148.6 31.2 2.4
      vertex 152.6 31.2 86.9
      vertex 148.6 31.2 86.9
    endloop
  endfacet
  facet normal 0 -1 -0
    outer loop
      vertex 152.6 31.2 86.9
      vertex 148.6 31.2 2.4
      vertex 152.6 31.2 2.4
    endloop
  endfacet
  facet normal 1 -0 0
    outer loop
      vertex 97.5 31.2 7.4
      vertex 97.5 32.8 2.4
      vertex 97.5 32.8 7.4
    endloop
  endfacet
  facet normal 1 0 0
    outer loop
      vertex 97.5 32.8 2.4
      vertex 97.5 31.2 7.4
      vertex 97.5 31.2 2.4
    endloop
  endfacet
  facet normal -0 0 1
    outer loop
      vertex 57.5 32.8 7.4
      vertex 97.5 31.2 7.4
      vertex 97.5 32.8 7.4
    endloop
  endfacet
  facet normal 0 0 1
    outer loop
      vertex 97.5 31.2 7.4
      vertex 57.5 32.8 7.4
      vertex 57.5 31.2 7.4
    endloop
  endfacet
  facet normal -1 0 0
    outer loop
      vertex 57.5 31.2 2.4
      vertex 57.5 32.8 7.4
      vertex 57.5 32.8 2.4
    endloop
  endfacet
  facet normal -1 -0 0
    outer loop
      vertex 57.5 32.8 7.4
      vertex 57.5 31.2 2.4
      vertex 57.5 31.2 7.4
    endloop
  endfacet
  facet normal 0 1 -0
    outer loop
      vertex 97.5 32.8 2.4
      vertex 57.5 32.8 7.4
      vertex 97.5 32.8 7.4
    endloop
  endfacet
  facet normal 0 1 0
    outer loop
      vertex 57.5 32.8 7.4
      vertex 97.5 32.8 2.4
      vertex 57.5 32.8 2.4
    endloop
  endfacet
  facet normal 0 -1 0
    outer loop
      vertex 57.5 31.2 2.4
      vertex 97.5 31.2 7.4
      vertex 57.5 31.2 7.4
    endloop
  endfacet
  facet normal 0 -1 -0
    outer loop
      vertex 97.5 31.2 7.4
      vertex 57.5 31.2 2.4
      vertex 97.5 31.2 2.4
    endloop
  endfacet
  facet normal 1 -0 0
    outer loop
      vertex 6.4 38.8 86.9
      vertex 6.4 40.4 2.4
      vertex 6.4 40.4 86.9
    endloop
  endfacet
  facet normal 1 0 0
    outer loop
      vertex 6.4 40.4 2.4
      vertex 6.4 38.8 86.9
      vertex 6.4 38.8 2.4
    endloop
  endfacet
  facet normal 0 1 -0
    outer loop
      vertex 6.4 40.4 2.4
      vertex 2.4 40.4 86.9
      vertex 6.4 40.4 86.9
    endloop
  endfacet
  facet normal 0 1 0
    outer loop
      vertex 2.4 40.4 86.9
      vertex 6.4 40.4 2.4
      vertex 2.4 40.4 2.4
    endloop
  endfacet
  facet normal 0 -1 0
    outer loop
      vertex 2.4 38.8 2.4
      vertex 6.4 38.8 86.9
      vertex 2.4 38.8 86.9
    endloop
  endfacet
  facet normal 0 -1 -0
    outer loop
      vertex 6.4 38.8 86.9
      vertex 2.4 38.8 2.4
      vertex 6.4 38.8 2.4
    endloop
  endfacet
  facet normal -1 0 0
    outer loop
      vertex 148.6 38.8 2.4
      vertex 148.6 40.4 86.9
      vertex 148.6 40.4 2.4
    endloop
  endfacet
  facet normal -1 -0 0
    outer loop
      vertex 148.6 40.4 86.9
      vertex 148.6 38.8 2.4
      vertex 148.6 38.8 86.9
    endloop
  endfacet
  facet normal 0 1 -0
    outer loop
      vertex 152.6 40.4 2.4
      vertex 148.6 40.4 86.9
      vertex 152.6 40.4 86.9
    endloop
  endfacet
  facet normal 0 1 0
    outer loop
      vertex 148.6 40.4 86.9
      vertex 152.6 40.4 2.4
      vertex 148.6 40.4 2.4
    endloop
  endfacet
  facet normal 0 -1 0
    outer loop
      vertex 148.6 38.8 2.4
      vertex 152.6 38.8 86.9
      vertex 148.6 38.8 86.9
    endloop
  endfacet
  facet normal 0 -1 -0
    outer loop
      vertex 152.6 38.8 86.9
      vertex 148.6 38.8 2.4
      vertex 152.6 38.8 2.4
    endloop
  endfacet
  facet normal 1 -0 0
    outer loop
      vertex 97.5 38.8 7.4
      vertex 97.5 40.4 2.4
      vertex 97.5 40.4 7.4
    endloop
  endfacet
  facet normal 1 0 0
    outer loop
      vertex 97.5 40.4 2.4
      vertex 97.5 38.8 7.4
      vertex 97.5 38.8 2.4
    endloop
  endfacet
  facet normal -0 0 1
    outer loop
      vertex 57.5 40.4 7.4
      vertex 97.5 38.8 7.4
      vertex 97.5 40.4 7.4
    endloop
  endfacet
  facet normal 0 0 1
    outer loop
      vertex 97.5 38.8 7.4
      vertex 57.5 40.4 7.4
      vertex 57.5 38.8 7.4
    endloop
  endfacet
  facet normal -1 0 0
    outer loop
      vertex 57.5 38.8 2.4
      vertex 57.5 40.4 7.4
      vertex 57.5 40.4 2.4
    endloop
  endfacet
  facet normal -1 -0 0
    outer loop
      vertex 57.5 40.4 7.4
      vertex 57.5 38.8 2.4
      vertex 57.5 38.8 7.4
    endloop
  endfacet
  facet normal 0 1 -0
    outer loop
      vertex 97.5 40.4 2.4
      vertex 57.5 40.4 7.4
      vertex 97.5 40.4 7.4
    endloop
  endfacet
  facet normal 0 1 0
    outer loop
      vertex 57.5 40.4 7.4
      vertex 97.5 40.4 2.4
      vertex 57.5 40.4 2.4
    endloop
  endfacet
  facet normal 0 -1 0
    outer loop
      vertex 57.5 38.8 2.4
      vertex 97.5 38.8 7.4
      vertex 57.5 38.8 7.4
    endloop
  endfacet
  facet normal 0 -1 -0
    outer loop
      vertex 97.5 38.8 7.4
      vertex 57.5 38.8 2.4
      vertex 97.5 38.8 2.4
    endloop
  endfacet
endsolid OpenSCAD_Model
